<svg id="Слой_1" data-name="Слой 1" xmlns="http://www.w3.org/2000/svg" viewBox="0 0 751.15 203.14"><defs><style>.cls-1{fill:#fff;}</style></defs><title>logo_gethub</title><path class="cls-1" d="M169.52,167.44H106.4a3,3,0,0,0-2.95,3v30.86a3,3,0,0,0,2.95,3H131v38.34s-5.53,1.88-20.81,1.88c-18,0-43.23-6.59-43.23-62s26.23-62.7,50.86-62.7c21.32,0,30.5,3.75,36.35,5.56,1.84.56,3.53-1.27,3.53-2.9l7-29.82a2.75,2.75,0,0,0-1.13-2.3c-2.37-1.69-16.85-9.79-53.43-9.79-42.14,0-85.36,17.93-85.36,104.11s49.49,99,91.19,99c34.53,0,55.48-14.76,55.48-14.76a2.53,2.53,0,0,0,1-2.24V170.39A3,3,0,0,0,169.52,167.44Z" transform="translate(-24.85 -80.5)"/><path class="cls-1" d="M494.82,90.83a2.94,2.94,0,0,0-2.93-3H456.35a3,3,0,0,0-2.94,3v68.68H398V90.83a2.94,2.94,0,0,0-2.93-3H359.54a3,3,0,0,0-2.94,3v186a3,3,0,0,0,2.94,3h35.54a3,3,0,0,0,2.93-3V197.25h55.4l-.1,79.55a3,3,0,0,0,2.94,3h35.62a3,3,0,0,0,2.93-3Z" transform="translate(-24.85 -80.5)"/><path class="cls-1" d="M236.59,115.23a22.92,22.92,0,1,0-22.92,23.15A23,23,0,0,0,236.59,115.23Z" transform="translate(-24.85 -80.5)"/><path class="cls-1" d="M234,237.57V151.72a3,3,0,0,0-2.94-3H195.68a3.39,3.39,0,0,0-3.08,3.31v123c0,3.61,2.25,4.69,5.17,4.69h31.92c3.5,0,4.36-1.72,4.36-4.75Z" transform="translate(-24.85 -80.5)"/><path class="cls-1" d="M629.89,149H594.62a3,3,0,0,0-2.93,3v91.19A39.85,39.85,0,0,1,570,249.76c-12.72,0-16.09-5.77-16.09-18.22V152a3,3,0,0,0-2.93-3H515.19a3,3,0,0,0-2.94,3v85.54c0,37,20.61,46,49,46,23.26,0,42-12.85,42-12.85s.89,6.77,1.3,7.58a3.11,3.11,0,0,0,2.59,1.61l22.77-.1a3,3,0,0,0,2.94-3V152A3,3,0,0,0,629.89,149Z" transform="translate(-24.85 -80.5)"/><path class="cls-1" d="M726.29,144.86a66.32,66.32,0,0,0-33.66,8.94v-63a3,3,0,0,0-2.93-3H654.06a3,3,0,0,0-2.94,3v186a3,3,0,0,0,2.94,3h24.73a3,3,0,0,0,2.58-1.58c.61-1,1.5-8.58,1.5-8.58s14.57,13.81,42.16,13.81c32.39,0,51-16.43,51-73.75S746.33,144.86,726.29,144.86ZM712.38,249.65a42.29,42.29,0,0,1-20.53-5.92v-58.9a47,47,0,0,1,18.23-5.91c12.7-1.14,24.94,2.7,24.94,33C735,243.86,729.49,250.16,712.38,249.65Z" transform="translate(-24.85 -80.5)"/><path class="cls-1" d="M336.19,148.74H309.53l0-35.22c0-1.33-.69-2-2.23-2H270.93c-1.41,0-2.17.62-2.17,2v36.4s-18.21,4.4-19.44,4.75a3,3,0,0,0-2.13,2.83v22.87a3,3,0,0,0,2.94,3h18.63v55c0,40.87,28.67,44.88,48,44.88a81.11,81.11,0,0,0,21.16-3.48,2.75,2.75,0,0,0,1.67-2.67l0-25.16a3,3,0,0,0-2.95-3c-1.55,0-5.53.63-9.62.63-13.09,0-17.53-6.09-17.53-14s0-52.29,0-52.29h26.66a3,3,0,0,0,2.94-3V151.71A3,3,0,0,0,336.19,148.74Z" transform="translate(-24.85 -80.5)"/></svg>