<svg id="Слой_1" data-name="Слой 1" xmlns="http://www.w3.org/2000/svg" viewBox="0 0 764.59 208.29"><defs><style>.cls-1,.cls-2{fill:#fff;}.cls-2{font-size:29.37px;font-family:HelveticaNeue-Light, Helvetica Neue;}</style></defs><title>logo_leadgroup</title><path class="cls-1" d="M112,243.47H55.26a3.68,3.68,0,0,1-3.68-3.68V130.5a1.24,1.24,0,0,0-.36-.87L20.29,98.46a.34.34,0,0,0-.58.24V250a25.37,25.37,0,0,0,25.37,25.37H148.25a.48.48,0,0,0,.34-.81L121,247.19A12.82,12.82,0,0,0,112,243.47Z" transform="translate(-19.71 -98.35)"/><path class="cls-1" d="M88.47,161.53h56.74a3.68,3.68,0,0,1,3.68,3.68v109.3a1.22,1.22,0,0,0,.35.86l30.94,31.18a.34.34,0,0,0,.58-.24V155a25.37,25.37,0,0,0-25.37-25.37H52.23a.48.48,0,0,0-.34.81l27.55,27.34A12.82,12.82,0,0,0,88.47,161.53Z" transform="translate(-19.71 -98.35)"/><path class="cls-1" d="M219.53,224.05c0,3.51,1.46,5,5.27,5H247.9l.68,11.31a271.63,271.63,0,0,1-28.47,1.07c-10.82,0-15.41-6-15.41-14.33V173.84h14.82Z" transform="translate(-19.71 -98.35)"/><path class="cls-1" d="M302.22,240.43c-9.17,1-20.77,1-31.2,1-9,0-14.72-5.27-14.82-13.55V187.1c.1-8.29,5.85-13.55,14.82-13.55,10.43,0,22,0,31.2,1l-.68,11H275.7c-3.22,0-4.58,1.46-4.58,5v10.24h26.81v10.73H271.11v13c0,3.61,1.37,5.07,4.58,5.07h25.84Z" transform="translate(-19.71 -98.35)"/><path class="cls-1" d="M326.31,223.47l-4.88,17.65H306.22l19.4-63.38a5.14,5.14,0,0,1,5.17-3.9h14a5.06,5.06,0,0,1,5.17,3.9l19.4,63.38H354.29l-4.88-17.65Zm14.24-32.08c-.49-2-1.07-4.29-1.37-6.34h-2.63l-1.46,6.34L329.43,212H346.2Z" transform="translate(-19.71 -98.35)"/><path class="cls-1" d="M431.13,207.47c0,26.62-7.51,34.52-28.67,34.52-10.14,0-18.43-.39-26.13-.88V173.84c7.7-.49,15.89-.88,26.13-.88C423.62,173,431.13,180.86,431.13,207.47Zm-15.6,0c0-17.65-3-22.91-13.07-22.91-4.29,0-7.9.1-11.31.1v45.54c3.41,0,7.22.1,11.31.1C412.5,230.29,415.53,225.12,415.53,207.47Z" transform="translate(-19.71 -98.35)"/><path class="cls-1" d="M485.05,229.71c-4.9,4.35-10.48,9.26-19.41,9.26-13.55,0-18.82-8.83-18.82-31.5,0-23.55,5.44-31.5,21.55-31.5a112.66,112.66,0,0,1,18.37,1.16l.88.13,1.25-3.74-1.18-.24a86.37,86.37,0,0,0-19.32-1.68c-19.12,0-26.23,9.72-26.23,35.88,0,25.15,7,35.88,23.3,35.88,7.25,0,14.11-2.92,20-8.48l.49,7.31h3.72V201h-4.57Z" transform="translate(-19.71 -98.35)"/><path class="cls-1" d="M537.76,210.47c7.7-2,10.77-7.38,10.77-18.5,0-14.94-5.16-20-20.47-20a192.41,192.41,0,0,0-21.66.78l-1,.1v69.32H510V211.62c3.5.16,10.1.33,18.92.33,5,0,8,2.47,10,8.24l7.46,22h5l-7.9-23C542.07,215.1,540.11,212.13,537.76,210.47Zm6.09-18.5c0,11.91-3.54,15.41-15.81,15.6H510v-31c3.41-.08,9.77-.16,18-.16C540.31,176.37,543.86,179.87,543.86,192Z" transform="translate(-19.71 -98.35)"/><path class="cls-1" d="M587.93,171.6c-18.9,0-25.93,9.72-25.93,35.88s7,35.88,25.93,35.88,25.93-9.72,25.93-35.88S606.83,171.6,587.93,171.6Zm21.26,35.88c0,23.55-5.36,31.5-21.26,31.5s-21.26-7.95-21.26-31.5S572,176,587.93,176,609.19,183.92,609.19,207.47Z" transform="translate(-19.71 -98.35)"/><path class="cls-1" d="M672.18,216.25c0,16.78-5.08,22.72-19.41,22.72s-19.51-5.95-19.51-22.72V172.77h-4.57v43.48c0,19.51,6.75,27.1,24.08,27.1s24-7.6,24-27.1V172.77h-4.57Z" transform="translate(-19.71 -98.35)"/><path class="cls-1" d="M716.84,172a192.41,192.41,0,0,0-21.66.78l-1,.1v69.32h4.57v-28.8c3.69.17,10.32.33,18,.33,15.31,0,20.47-5.26,20.47-20.86S732.15,172,716.84,172Zm15.8,20.86c0,12.74-3.4,16.29-15.81,16.48h-18v-32.8c3.41-.08,9.77-.16,18-.16C729.09,176.37,732.64,180.07,732.64,192.85Z" transform="translate(-19.71 -98.35)"/><text class="cls-2" transform="translate(741.09 94)">®</text></svg>