<svg id="Слой_1" data-name="Слой 1" xmlns="http://www.w3.org/2000/svg" viewBox="0 0 947 158.92"><defs><style>.cls-1{fill:#fff;}</style></defs><title>logo</title><path class="cls-1" d="M904.79,374.35h-15a1.81,1.81,0,1,0,0,3.62h11.73v1.54a13.14,13.14,0,0,1-3.84,9.89,14,14,0,0,1-10.16,3.71A13.66,13.66,0,0,1,876.38,388q-4.18-5.14-4.17-13.78t4.13-13.47a13.86,13.86,0,0,1,11.23-4.94,14.16,14.16,0,0,1,8.6,2.65,13.06,13.06,0,0,1,4.51,6,1.93,1.93,0,0,0,1.78,1.29h.47a1.89,1.89,0,0,0,1.8-2.48,16,16,0,0,0-5.44-7.55A18.55,18.55,0,0,0,887.56,352q-8.92,0-14.25,6.06T868,374.2q0,10.3,5.37,16.53A17.84,17.84,0,0,0,887.56,397q8.49,0,13.3-4.89t4.81-13.53v-3.31A.88.88,0,0,0,904.79,374.35Z" transform="translate(-249 -315.88)"/><path class="cls-1" d="M939.4,373.32a12.8,12.8,0,0,0,2.48-7.92,12,12,0,0,0-3.8-9.3q-3.79-3.46-10.17-3.46H913.63a1.32,1.32,0,0,0-1.32,1.32v40.25a2.06,2.06,0,0,0,4.11,0V378.79a.39.39,0,0,1,.39-.39h11.13a.51.51,0,0,1,.45.26l9.3,16.55a2.06,2.06,0,0,0,1.79,1h.07a2.06,2.06,0,0,0,1.79-3.07l-8.8-15.46A12,12,0,0,0,939.4,373.32Zm-4.43-1q-2.65,2.42-7.39,2.42H916.43v-18a.39.39,0,0,1,.39-.39h10.62a10.77,10.77,0,0,1,7.48,2.44,8.61,8.61,0,0,1,2.71,6.75A8.77,8.77,0,0,1,935,372.33Z" transform="translate(-249 -315.88)"/><path class="cls-1" d="M950.62,396.26a2.06,2.06,0,0,0,2.06-2.06V354.7a2.06,2.06,0,0,0-4.11,0v39.51A2.06,2.06,0,0,0,950.62,396.26Z" transform="translate(-249 -315.88)"/><path class="cls-1" d="M962.15,396.26h13q9.82,0,15.25-5.73t5.42-16.09q0-10.34-5.44-16.07t-15.23-5.73h-13a1.32,1.32,0,0,0-1.32,1.32v41A1.32,1.32,0,0,0,962.15,396.26ZM965,356.74a.34.34,0,0,1,.34-.34h9.63q8,0,12.38,4.69t4.34,13.39q0,8.67-4.34,13.36t-12.38,4.69h-9.63a.34.34,0,0,1-.34-.34Z" transform="translate(-249 -315.88)"/><path class="cls-1" d="M904.79,448.63h-15a1.81,1.81,0,1,0,0,3.62h11.73v1.54a13.14,13.14,0,0,1-3.84,9.89,14,14,0,0,1-10.16,3.71,13.66,13.66,0,0,1-11.18-5.14q-4.18-5.14-4.17-13.78T876.34,435a13.86,13.86,0,0,1,11.23-4.94,14.16,14.16,0,0,1,8.6,2.65,13.07,13.07,0,0,1,4.53,6.07,1.85,1.85,0,0,0,1.72,1.24H903a1.82,1.82,0,0,0,1.73-2.39,16.05,16.05,0,0,0-5.47-7.64,18.55,18.55,0,0,0-11.73-3.77q-8.92,0-14.25,6.06T868,448.48q0,10.3,5.37,16.53a17.84,17.84,0,0,0,14.22,6.23q8.49,0,13.3-4.89t4.81-13.53v-3.31A.88.88,0,0,0,904.79,448.63Z" transform="translate(-249 -315.88)"/><path class="cls-1" d="M936.8,426.93H913.63a1.32,1.32,0,0,0-1.32,1.32v41a1.32,1.32,0,0,0,1.32,1.32H936.8a1.84,1.84,0,0,0,1.84-1.84v-.06a1.84,1.84,0,0,0-1.84-1.84H916.58a.16.16,0,0,1-.16-.16V450.21a.16.16,0,0,1,.16-.16h19.1a1.84,1.84,0,1,0,0-3.68h-19.1a.16.16,0,0,1-.16-.16V430.83a.16.16,0,0,1,.16-.16H936.8a1.84,1.84,0,0,0,1.84-1.84v-.06A1.84,1.84,0,0,0,936.8,426.93Z" transform="translate(-249 -315.88)"/><path class="cls-1" d="M977.59,426.93a2,2,0,0,0-2,2v34.39h-.21L950.56,428a2.63,2.63,0,0,0-2.15-1.12h-.09a2.63,2.63,0,0,0-2.63,2.63v39a2,2,0,0,0,2,2h0a2,2,0,0,0,2-2V434.09H950l24.88,35.34a2.63,2.63,0,0,0,4.77-1.51V429A2,2,0,0,0,977.59,426.93Z" transform="translate(-249 -315.88)"/><path class="cls-1" d="M1012.28,426.93H989.11a1.32,1.32,0,0,0-1.32,1.32v41a1.32,1.32,0,0,0,1.32,1.32h23.17a1.84,1.84,0,0,0,1.84-1.84v-.06a1.84,1.84,0,0,0-1.84-1.84h-20a.41.41,0,0,1-.41-.41V450.46a.41.41,0,0,1,.41-.41h18.85a1.84,1.84,0,1,0,0-3.68H992.32a.41.41,0,0,1-.41-.41V431.09a.41.41,0,0,1,.41-.41h20a1.84,1.84,0,0,0,1.84-1.84v-.06A1.84,1.84,0,0,0,1012.28,426.93Z" transform="translate(-249 -315.88)"/><path class="cls-1" d="M1048.25,447.6a12.8,12.8,0,0,0,2.48-7.92,12,12,0,0,0-3.8-9.3q-3.79-3.46-10.17-3.46h-14.28a1.32,1.32,0,0,0-1.32,1.32v40.27a2,2,0,0,0,2,2h0a2,2,0,0,0,2-2V453a.28.28,0,0,1,.28-.28h11.54l9.45,16.82a2,2,0,0,0,1.77,1h.12a2,2,0,0,0,1.77-3l-8.82-15.5A12,12,0,0,0,1048.25,447.6Zm-4.43-1q-2.65,2.42-7.39,2.42h-10.87a.28.28,0,0,1-.28-.28V430.89a.28.28,0,0,1,.28-.28h10.73a10.77,10.77,0,0,1,7.48,2.44,8.61,8.61,0,0,1,2.71,6.75A8.77,8.77,0,0,1,1043.82,446.61Z" transform="translate(-249 -315.88)"/><path class="cls-1" d="M1075.17,428.85a3,3,0,0,0-5.55,0l-14.58,39a2,2,0,0,0,1.9,2.74h0a2,2,0,0,0,1.91-1.34l4.35-12h18.32l4.35,12a2,2,0,1,0,3.81-1.4Zm-10.69,24.77,7.83-21.58h.18l7.83,21.58Z" transform="translate(-249 -315.88)"/><path class="cls-1" d="M1117.95,426.93h-29.59a1.87,1.87,0,1,0,0,3.75h12.49a.24.24,0,0,1,.24.24v37.76a1.87,1.87,0,0,0,1.87,1.87h.39a1.87,1.87,0,0,0,1.87-1.87V430.92a.24.24,0,0,1,.24-.24h12.48a1.87,1.87,0,1,0,0-3.75Z" transform="translate(-249 -315.88)"/><path class="cls-1" d="M1140.2,426.24q-9.1,0-14.45,6.07t-5.35,16.44q0,10.37,5.33,16.43t14.47,6.06q9.13,0,14.48-6.06t5.35-16.43q0-10.37-5.35-16.44T1140.2,426.24Zm11.38,36.11a15.32,15.32,0,0,1-22.73,0q-4.22-5-4.22-13.6t4.2-13.63a15.34,15.34,0,0,1,22.75,0q4.22,5,4.22,13.63T1151.58,462.35Z" transform="translate(-249 -315.88)"/><path class="cls-1" d="M1186.66,452a12,12,0,0,0,6.86-4.41,12.8,12.8,0,0,0,2.48-7.92,12,12,0,0,0-3.8-9.3q-3.79-3.46-10.17-3.46h-14.28a1.32,1.32,0,0,0-1.32,1.32v40.25a2.06,2.06,0,1,0,4.11,0v-15.8h11.39a.73.73,0,0,1,.64.37l9.23,16.44a2.06,2.06,0,0,0,1.79,1h.07a2.06,2.06,0,0,0,1.79-3.07Zm-5-3h-10.81a.35.35,0,0,1-.35-.35V431a.35.35,0,0,1,.35-.35h10.66a10.77,10.77,0,0,1,7.48,2.44,8.61,8.61,0,0,1,2.71,6.75,8.77,8.77,0,0,1-2.64,6.81Q1186.44,449,1181.7,449Z" transform="translate(-249 -315.88)"/><path class="cls-1" d="M257.58,429.93h2.54a8.41,8.41,0,0,1,7.91,5.93A27.76,27.76,0,0,0,279,450q10.82,7.57,27.34,7.57,15.56,0,25.74-7.41t10.18-18.71a20.44,20.44,0,0,0-7.09-16q-7.09-6.29-22.65-10.34L292.76,400q-21.32-5.43-31.12-15.19t-9.81-25.42q0-19.19,15.19-31.34t39.17-12.15q22.92,0,37.94,12.31a41.08,41.08,0,0,1,14,20.55,8.57,8.57,0,0,1-8.16,11h-2.39a8.56,8.56,0,0,1-8.15-6.1A26.24,26.24,0,0,0,330,340.29q-9.38-7.14-24.41-7.14t-24.36,7q-9.43,7-9.43,18.33a17.66,17.66,0,0,0,6.88,14.34q6.87,5.6,22.54,9.65l16.09,4.26q23.87,6,34.32,15.88T362,429.07q0,21.11-15.51,33.42t-42,12.31q-24.52,0-40.08-12.26a42.79,42.79,0,0,1-15.07-21.87A8.49,8.49,0,0,1,257.58,429.93Z" transform="translate(-249 -315.88)"/><path class="cls-1" d="M475.76,393.12c-.24-4.61-4.38-8.07-9-8.07H393a8.53,8.53,0,0,0-8.53,8.53h0a8.53,8.53,0,0,0,8.53,8.53h74.29A8.53,8.53,0,0,0,475.76,393.12Z" transform="translate(-249 -315.88)"/><rect class="cls-1" x="135.42" y="2.56" width="95.29" height="17.27" rx="8.53" ry="8.53"/><rect class="cls-1" x="135.42" y="139.1" width="95.29" height="17.27" rx="8.53" ry="8.53"/><path class="cls-1" d="M544.94,356.46V463.61a8.63,8.63,0,0,0,8.63,8.63h1.92a8.63,8.63,0,0,0,8.63-8.63V356.46a9.59,9.59,0,0,0-9.59-9.59h0A9.59,9.59,0,0,0,544.94,356.46Z" transform="translate(-249 -315.88)"/><path class="cls-1" d="M605.06,318.44H503.91a8.53,8.53,0,0,0-8.53,8.53v.21a8.53,8.53,0,0,0,8.53,8.53H605.06a8.63,8.63,0,1,0,0-17.27Z" transform="translate(-249 -315.88)"/><path class="cls-1" d="M649.3,327.28a8.84,8.84,0,0,0-8.84-8.84H639a8.84,8.84,0,0,0-8.84,8.84V462.69a9.55,9.55,0,0,0,9.55,9.55h.08a9.55,9.55,0,0,0,9.55-9.55Z" transform="translate(-249 -315.88)"/><path class="cls-1" d="M735.39,456.42l-54.12-67.36a3.74,3.74,0,0,1,.17-4.89l46.9-50.53c4.76-5.13,2.27-13.87-4.62-15.07a8.85,8.85,0,0,0-8.09,2.78l-52,57.73a13.81,13.81,0,0,0-.51,17.89l57.64,71.69a9.58,9.58,0,0,0,10.93,2.94C738.27,469.09,739.83,461.95,735.39,456.42Z" transform="translate(-249 -315.88)"/><path class="cls-1" d="M774,472.24H774a9.55,9.55,0,0,1-9.55-9.55V327.28a8.84,8.84,0,0,1,8.84-8.84h1.5a8.84,8.84,0,0,1,8.84,8.84V462.69A9.55,9.55,0,0,1,774,472.24Z" transform="translate(-249 -315.88)"/><path class="cls-1" d="M818.85,343.52a12.59,12.59,0,0,1-6.36-1.67A12.37,12.37,0,0,1,806.21,331a12,12,0,0,1,3.68-8.86,12.89,12.89,0,0,1,17.94,0,12.52,12.52,0,0,1,0,17.73A12.29,12.29,0,0,1,818.85,343.52Zm-7.37-5.12a10.53,10.53,0,1,0-3-7.37A10,10,0,0,0,811.47,338.39Zm4.49-1.51h-2V324.3h5.53a4.54,4.54,0,0,1,3.1,1.06,3.51,3.51,0,0,1,1.21,2.78,3.72,3.72,0,0,1-.83,2.49,3.37,3.37,0,0,1-2.17,1.18l3.61,5.08h-2.5l-3.25-4.8H816ZM816,326v4.44h3.11a2.74,2.74,0,0,0,1.92-.61,2.15,2.15,0,0,0,.67-1.67,2,2,0,0,0-.65-1.58,2.72,2.72,0,0,0-1.87-.58Z" transform="translate(-249 -315.88)"/></svg>